<?xml version="1.0" standalone="no"?>
<!DOCTYPE svg PUBLIC "-//W3C//DTD SVG 20010904//EN"
 "http://www.w3.org/TR/2001/REC-SVG-20010904/DTD/svg10.dtd">
<svg version="1.0" xmlns="http://www.w3.org/2000/svg"
 width="2400.000000pt" height="930.000000pt" viewBox="0 0 2400.000000 930.000000"
 preserveAspectRatio="xMidYMid meet">

<g transform="translate(0.000000,930.000000) scale(0.100000,-0.100000)"
fill="#000000" stroke="none">
<path d="M0 4650 l0 -4650 12000 0 12000 0 0 4650 0 4650 -12000 0 -12000 0 0
-4650z m11190 2840 l0 -580 -4075 0 -4075 0 108 178 c447 732 534 852 664 918
110 56 74 54 1225 54 l1063 0 0 -522 0 -523 41 120 c51 148 114 285 173 373
52 79 253 278 347 345 85 60 252 139 351 166 181 50 120 49 2216 50 l1962 1 0
-580z m1360 0 l0 -580 -580 0 -580 0 0 580 0 580 580 0 580 0 0 -580z m3798
-2 l2 -578 -580 0 -580 0 0 580 0 580 578 -2 577 -3 3 -577z m5372 2 l0 -580
-2680 0 -2680 0 0 54 c0 107 127 423 225 561 55 77 251 268 336 328 85 60 252
139 351 166 181 50 110 49 2351 50 l2097 1 0 -580z m921 502 c165 -44 294
-173 344 -346 25 -84 17 -231 -15 -306 -54 -125 -137 -215 -250 -269 -74 -35
-77 -36 -200 -36 -123 0 -126 0 -203 37 -267 127 -364 463 -206 710 114 177
329 262 530 210z m-19004 -1220 c342 -38 625 -71 628 -74 6 -5 -1871 -2945
-1899 -2976 -9 -9 -155 -12 -687 -10 l-676 3 964 1515 c530 833 977 1536 993
1563 16 26 35 47 42 47 7 0 293 -31 635 -68z m8333 13 c272 -19 514 -37 537
-41 l42 -5 3 -817 3 -817 27 -57 c34 -73 98 -137 174 -174 l59 -29 1044 -3
c1155 -3 1106 -5 1193 61 59 45 101 104 129 179 l24 63 3 708 3 707 22 0 c42
0 1032 -60 1075 -66 l43 -5 -3 -917 -3 -917 -28 -100 c-33 -121 -108 -277
-175 -365 -61 -81 -180 -194 -260 -248 -149 -102 -387 -195 -577 -227 -90 -14
-233 -16 -1475 -13 -1369 4 -1375 4 -1455 25 -405 108 -693 337 -855 678 -67
143 -119 324 -121 430 -1 33 -3 49 -6 35 -35 -230 -66 -336 -135 -475 -88
-175 -221 -335 -373 -448 -105 -78 -293 -169 -429 -207 l-109 -30 -2714 0
-2713 0 0 1470 0 1470 28 0 c33 0 950 -67 1040 -75 l62 -7 0 -859 0 -859 2048
0 c1451 0 2059 3 2087 11 56 15 127 91 145 152 27 100 -11 221 -84 266 -18 12
-58 26 -87 31 -30 6 -704 64 -1499 130 -795 66 -1463 123 -1485 126 -66 10
-295 89 -375 129 -171 85 -313 201 -421 343 -88 116 -177 320 -214 490 -8 39
-32 38 281 12 131 -11 606 -49 1054 -85 448 -36 1009 -81 1245 -100 237 -20
570 -47 740 -60 505 -41 876 -75 938 -86 151 -27 312 -98 444 -198 224 -169
445 -485 518 -741 11 -38 13 86 14 753 l1 797 37 0 c21 0 260 -16 533 -35z
m5275 -340 c2536 -152 3347 -206 3483 -231 364 -67 690 -337 878 -727 66 -139
91 -233 100 -380 13 -226 -23 -448 -105 -637 -186 -432 -529 -694 -987 -755
-92 -12 -429 -15 -2181 -15 l-2073 0 0 423 c0 232 3 493 7 579 l6 158 2046 2
2046 3 57 23 c69 28 103 65 124 139 13 46 14 66 5 111 -16 78 -43 117 -106
147 -53 26 -76 28 -1583 155 -961 81 -1552 135 -1591 145 -231 59 -406 150
-566 293 -164 147 -258 282 -328 472 -55 149 -54 140 -15 140 18 0 370 -20
783 -45z m-9512 -3475 c169 -27 290 -144 332 -321 8 -35 15 -110 15 -166 l0
-103 -139 0 -138 0 -5 109 c-6 126 -24 173 -78 209 -64 43 -164 17 -200 -54
-23 -44 -28 -992 -6 -1068 23 -78 42 -91 136 -91 69 0 82 3 104 24 33 31 46
96 46 231 l0 110 140 0 140 0 0 -139 c0 -108 -4 -153 -19 -200 -37 -119 -104
-200 -205 -247 -47 -22 -63 -24 -206 -24 -144 0 -159 2 -208 25 -111 51 -180
134 -213 252 -18 62 -19 109 -19 583 0 560 2 586 56 678 42 71 80 108 153 146
96 50 198 65 314 46z m2697 -1 c159 -25 274 -122 327 -275 15 -43 17 -111 20
-554 3 -337 0 -526 -7 -568 -24 -137 -100 -246 -213 -302 -60 -30 -62 -30
-221 -30 -151 0 -164 2 -216 26 -75 35 -129 82 -167 145 -63 105 -64 119 -61
716 l3 538 24 58 c76 190 273 285 511 246z m-6699 -26 c115 -52 207 -186 233
-339 l7 -41 -103 -12 c-57 -6 -117 -14 -135 -17 -30 -6 -32 -4 -39 33 -15 86
-67 143 -138 150 -80 8 -142 -46 -152 -132 -13 -108 44 -202 210 -343 171
-147 258 -241 304 -330 71 -136 88 -248 57 -380 -20 -83 -54 -140 -121 -201
-83 -76 -134 -91 -308 -91 -139 0 -144 1 -203 30 -108 54 -195 173 -228 312
-28 119 -34 111 116 133 141 20 148 18 149 -31 0 -53 34 -125 76 -164 38 -34
50 -40 89 -40 56 0 102 19 135 55 22 24 25 35 25 103 -1 59 -6 87 -22 117 -36
69 -102 142 -220 241 -165 141 -234 218 -282 316 -53 108 -70 205 -53 315 28
177 118 282 283 328 81 22 259 16 320 -12z m10921 -10 c74 -35 147 -102 179
-165 36 -70 59 -184 59 -290 l0 -98 -144 0 -144 0 -4 118 c-4 127 -14 158 -66
197 -38 28 -131 27 -169 -1 -51 -38 -52 -51 -52 -597 -1 -541 0 -548 48 -591
15 -13 41 -21 81 -24 131 -10 159 32 160 236 l0 132 145 0 145 0 0 -132 c-1
-147 -9 -195 -45 -273 -37 -77 -96 -139 -167 -174 -60 -31 -63 -31 -217 -31
-152 0 -158 1 -218 29 -111 53 -187 152 -213 277 -7 33 -10 238 -8 585 3 532
3 534 26 591 25 63 102 154 158 189 73 45 140 59 264 56 106 -2 121 -5 182
-34z m-13312 -833 l0 -850 -145 0 -145 0 0 850 0 850 145 0 145 0 0 -850z
m700 389 c91 -254 170 -473 177 -488 9 -20 12 81 12 462 l1 487 130 0 130 0
-2 -852 -3 -853 -124 0 -124 0 -181 522 c-100 287 -184 525 -188 529 -5 4 -8
-232 -8 -525 l0 -532 -127 3 -128 3 -3 853 -2 852 137 0 138 0 165 -461z
m2880 331 l0 -130 -240 0 -240 0 0 -215 0 -215 185 0 185 0 0 -130 0 -130
-185 0 -185 0 0 -250 0 -250 260 0 261 0 -3 -127 -3 -128 -402 -3 -403 -2 0
855 0 855 385 0 385 0 0 -130z m844 -292 c42 -233 112 -614 155 -848 43 -234
76 -428 74 -432 -2 -5 -64 -8 -137 -8 l-134 0 -6 33 c-3 17 -15 103 -27 190
l-22 157 -159 0 c-87 0 -158 -2 -158 -4 0 -15 -51 -353 -55 -363 -3 -10 -41
-13 -140 -13 -117 0 -135 2 -135 16 0 18 298 1661 305 1682 3 9 49 12 183 12
l178 0 78 -422z m934 399 c209 -61 295 -199 296 -477 1 -134 -11 -201 -50
-286 -23 -48 -85 -117 -128 -141 -17 -10 -11 -35 97 -374 63 -200 118 -374
122 -387 l7 -23 -148 3 -148 3 -100 347 -101 348 -79 0 -78 0 3 -347 4 -348
-145 0 -145 0 -3 840 c-1 462 0 846 3 853 8 21 519 11 593 -11z m1912 -322 l0
-345 155 0 155 0 0 345 0 345 145 0 145 0 -2 -852 -3 -853 -142 -3 -143 -3 0
381 0 380 -155 0 -155 0 -2 -377 -3 -378 -142 -3 -143 -3 0 856 0 855 145 0
145 0 0 -345z m3190 215 l0 -130 -260 0 -260 0 0 -215 0 -215 195 0 195 0 0
-130 0 -130 -195 0 -195 0 0 -380 0 -380 -140 0 -140 0 0 855 0 855 400 0 400
0 0 -130z m860 -720 l0 -850 -150 0 -150 0 0 850 0 850 150 0 150 0 0 -850z
m700 358 l175 -493 3 493 2 492 130 0 130 0 0 -855 0 -856 -126 3 -126 3 -182
525 -181 525 -5 -525 -5 -525 -130 0 -130 0 -3 853 -2 852 137 0 138 0 175
-492z m2311 478 c102 -18 177 -56 233 -116 73 -78 102 -163 112 -325 12 -187
-25 -324 -110 -410 -28 -29 -59 -57 -69 -62 -17 -9 -10 -37 102 -390 67 -209
121 -383 121 -387 0 -4 -66 -5 -146 -4 l-147 3 -100 348 -101 347 -78 0 -78 0
0 -350 0 -350 -140 0 -140 0 0 855 0 855 233 0 c149 -1 259 -6 308 -14z m1339
-116 l0 -130 -240 0 -240 0 0 -215 0 -215 185 0 185 0 0 -130 0 -130 -185 0
-185 0 0 -250 0 -250 255 0 255 0 0 -130 0 -130 -400 0 -400 0 0 855 0 855
385 0 385 0 0 -130z m829 103 c145 -59 221 -163 250 -344 17 -100 14 -886 -3
-981 -26 -142 -87 -238 -186 -292 -95 -52 -135 -58 -417 -63 l-263 -5 0 857 0
856 283 -3 c262 -3 286 -5 336 -25z m811 -823 l0 -850 -145 0 -145 0 0 850 0
850 145 0 145 0 0 -850z m905 821 c81 -32 164 -115 194 -196 82 -218 24 -481
-122 -560 l-34 -18 57 -39 c117 -78 170 -190 170 -363 0 -277 -123 -448 -350
-484 -36 -6 -173 -11 -306 -11 l-241 0 -6 143 c-4 78 -7 461 -7 850 l0 709
293 -4 c278 -4 295 -5 352 -27z m735 -696 l0 -725 230 0 231 0 -3 -127 -3
-128 -367 -3 -368 -2 0 855 0 855 140 0 140 0 0 -725z m1350 595 l0 -130 -240
0 -240 0 0 -215 0 -215 185 0 185 0 0 -130 0 -130 -185 0 -185 0 0 -250 0
-250 255 0 255 0 0 -130 0 -130 -400 0 -400 0 0 855 0 855 385 0 385 0 0 -130z"/>
<path d="M22388 7951 c-228 -73 -363 -316 -303 -546 35 -131 120 -234 245
-294 72 -35 79 -36 186 -36 107 0 112 1 185 37 97 48 169 121 217 217 36 73
37 77 37 190 0 110 -2 120 -32 184 -44 92 -82 138 -154 186 -116 77 -259 101
-381 62z m271 -209 c55 -28 76 -64 76 -132 -1 -52 -4 -63 -30 -90 l-30 -31 24
-18 c25 -19 39 -75 40 -163 1 -26 6 -50 11 -53 22 -14 7 -25 -34 -25 l-43 0
-8 82 c-12 138 -24 148 -182 148 l-73 0 0 -115 0 -115 -35 0 -35 0 0 265 0
265 143 0 c115 0 148 -3 176 -18z"/>
<path d="M22400 7610 l0 -90 105 0 c99 0 107 2 130 25 19 18 25 35 25 65 0 30
-6 47 -25 65 -23 23 -31 25 -130 25 l-105 0 0 -90z"/>
<path d="M10261 2707 c-19 -7 -44 -25 -55 -40 -21 -28 -21 -39 -24 -530 -2
-276 0 -521 3 -545 4 -27 17 -55 35 -75 25 -28 34 -32 96 -35 96 -4 133 15
156 83 16 45 17 98 15 550 -2 485 -3 501 -23 540 -23 45 -62 64 -129 64 -22 0
-55 -5 -74 -12z"/>
<path d="M5501 2605 c-1 -5 -26 -167 -56 -360 -30 -192 -55 -353 -55 -357 0
-4 52 -8 115 -8 63 0 115 2 115 4 0 12 -111 713 -114 721 -3 7 -5 7 -5 0z"/>
<path d="M6400 2450 l0 -260 88 0 c165 1 210 47 220 225 11 222 -47 295 -235
295 l-73 0 0 -260z"/>
<path d="M15420 2449 l0 -261 103 4 c118 4 146 17 179 82 17 32 22 65 26 147
9 221 -46 289 -235 289 l-73 0 0 -261z"/>
<path d="M17510 2100 l0 -612 99 4 c111 3 139 16 176 79 19 33 20 52 20 529 0
477 -1 496 -20 529 -37 63 -65 76 -176 79 l-99 4 0 -612z"/>
<path d="M19210 2480 l0 -230 58 0 c80 0 127 16 172 56 48 44 63 86 62 182 -1
59 -7 86 -27 128 -35 71 -81 94 -188 94 l-77 0 0 -230z"/>
<path d="M19200 1750 l0 -260 95 0 c109 0 148 12 188 59 36 43 47 89 47 197 0
196 -67 264 -259 264 l-71 0 0 -260z"/>
</g>
</svg>
